<?xml version="1.0" encoding="utf-8"?>
<!-- Generator: Adobe Illustrator 26.0.2, SVG Export Plug-In . SVG Version: 6.00 Build 0)  -->
<svg version="1.1" id="Capa_1" xmlns="http://www.w3.org/2000/svg" xmlns:xlink="http://www.w3.org/1999/xlink" x="0px" y="0px"
	 viewBox="0 0 160 90" style="enable-background:new 0 0 160 90;" xml:space="preserve">
<style type="text/css">
	.st0{fill:none;}
	.st1{fill:#1E1E1C;}
	.st2{font-family:'BarlowSemiCondensed-LightItalic';}
	.st3{font-size:7.5px;}
	.st4{font-family:'BarlowSemiCondensed-Light';}
	.st5{fill:#E7BD67;}
	.st6{fill:#868686;}
	.st7{fill:#DB9F00;}
</style>
<g>
	<rect x="11.85" y="63.28" class="st0" width="56.89" height="8.12"/>
	<text transform="matrix(1 0 0 1 11.8501 68.5302)" class="st1 st2 st3">Higo (Ficus carica)</text>
</g>
<g>
	<rect x="85.78" y="39.53" class="st0" width="39.11" height="11.17"/>
	<text transform="matrix(1 0 0 1 97.3835 44.7833)" class="st1 st4 st3">Hojas</text>
</g>
<g>
	<rect x="117.46" y="40.3" class="st0" width="39.11" height="11.17"/>
	<text transform="matrix(1 0 0 1 127.5408 45.549)" class="st1 st4 st3">Brotes</text>
</g>
<g>
	<rect x="85.78" y="75" class="st0" width="39.11" height="11.17"/>
	<text transform="matrix(1 0 0 1 93.1204 80.2492)" class="st1 st4 st3">Insectos</text>
</g>
<g>
	<rect x="105.38" y="75.06" class="st0" width="61.27" height="11.17"/>
	<text transform="matrix(1 0 0 1 125.4644 80.3126)" class="st1 st4 st3">Huevos</text>
</g>
<g>
	<g>
		<g>
			<path class="st5" d="M107.58,23.85c-0.23,0.9-0.77,1.59-0.75,2.56c0.02,0.71,0.2,1.22,0.8,1.6c0.17,0.11,0.27,0.12,0.46,0.12
				c0.13,0,0.25-0.08,0.38-0.09c0.7-0.05,0.32,0.14,0.66,0.17c0.25,0.02,0.37,0.01,0.6-0.11c0.35-0.18,0.33-0.16,0.69-0.05
				c0.12,0.04,0.21-0.06,0.22-0.17c0.02-0.21,0.63-0.25,0.79-0.37c0.16-0.11,0.19-0.28,0.29-0.43c0.02-0.19,0.12-0.31,0.3-0.35
				c0.08-0.05,0.16-0.1,0.24-0.13c0.04-0.04,0.09-0.07,0.13-0.12c0.17-0.21,0.26-0.56,0.36-0.8c0.18-0.42,0.34-0.77,0.65-1.1
				c0.16-0.17,0.25-0.29,0.3-0.53c0.07-0.31,0.02-0.64,0.03-0.95c0.01-0.6,0.07-1.19,0.17-1.79c-0.1,0.03-0.19,0.05-0.29,0.08
				c0.36,0.41,0.6,0.55,1.12,0.55c0.36,0,0.68,0.2,1.08,0.2c0.1,0,0.16-0.08,0.18-0.17c0.01-0.1,0.75-0.15,0.9-0.26
				c0.09-0.06,0.13-0.19,0.04-0.27c-0.05-0.05-0.11-0.1-0.16-0.14c-0.01,0.09-0.02,0.18-0.04,0.27c0.56-0.34,1-0.82,0.55-1.44
				c-0.15-0.21-0.31-0.29-0.38-0.55c-0.02-0.09,0.01-0.21-0.03-0.31c-0.14-0.36-0.58-0.34-0.82-0.59c-0.22-0.23-0.23-0.37-0.53-0.5
				c-0.53-0.23-1.23-0.29-1.81-0.35c-1.29-0.14-2.34,0.26-3.47,0.84c0.08,0.08,0.16,0.16,0.24,0.24c0.43-0.84,0.86-1.83,0.47-2.77
				c-0.41-0.99-1.52-1.82-2.29-2.51c-0.1-0.09-0.24-0.05-0.29,0.08c-0.04,0.1-0.07,0.19-0.11,0.29c0.11-0.01,0.21-0.03,0.32-0.04
				c-0.15-0.3-0.32-0.63-0.61-0.83c-0.35-0.24-0.68-0.13-1.08-0.12c-0.72,0.01-1.75-0.67-2.29,0.03c-0.2,0.25-0.51,0.8-0.51,1.14
				c0,0.09,0.09,0.16,0.12,0.24c0.11,0.29,0.14,0.47,0.23,0.73c0.11,0.33,0.23,0.31,0.47,0.54c0.14,0.13,0.87,1.1,0.86,1
				c0.02,0.22,0.37,0.22,0.35,0c-0.05-0.58-0.35-0.62-0.72-0.97c-0.1-0.09-0.19-0.23-0.29-0.34c-0.23-0.25-0.26-0.23-0.34-0.53
				c-0.02-0.05-0.05-0.31-0.06-0.37c-0.07-0.34-0.16-0.53,0.02-0.91c0.28-0.61,0.7-0.52,1.28-0.38c0.34,0.09,0.66,0.16,1.01,0.14
				c0.66-0.05,0.98,0.22,1.27,0.79c0.07,0.15,0.27,0.09,0.32-0.04c0.04-0.1,0.07-0.19,0.11-0.29c-0.1,0.03-0.19,0.05-0.29,0.08
				c0.66,0.59,1.34,1.19,1.89,1.89c0.75,0.94,0.38,2-0.12,2.97c-0.08,0.16,0.08,0.32,0.24,0.24c1.42-0.73,2.62-0.97,4.19-0.64
				c0.2,0.04,0.64,0.06,0.81,0.19c0.18,0.14,0.13,0.24,0.26,0.41c0.11,0.14,0.96,0.42,0.79,0.65c-0.03,0.05-0.03,0.13,0,0.18
				c0.1,0.15,0.23,0.27,0.34,0.41c0.43,0.59,0.25,0.79-0.27,1.11c-0.09,0.06-0.12,0.2-0.04,0.27c0.05,0.05,0.11,0.1,0.16,0.14
				c0.01-0.09,0.02-0.18,0.04-0.27c-0.39,0.27-0.99-0.08-1.08,0.56c0.06-0.06,0.12-0.12,0.18-0.18c-0.3,0.02-0.56-0.07-0.79-0.27
				c-0.06-0.04-0.15-0.08-0.21-0.03c-0.43,0.08-0.75-0.04-0.96-0.35c-0.08-0.09-0.27-0.05-0.29,0.08c-0.07,0.44-0.13,0.87-0.16,1.31
				c-0.03,0.44,0.1,1.1-0.06,1.52c-0.1,0.26-0.45,0.48-0.59,0.74c-0.19,0.33-0.25,0.72-0.44,1.05c-0.17,0.3-0.45,0.4-0.65,0.64
				c-0.16,0.19-0.18,0.43-0.32,0.62c-0.32,0.43-0.99,0.12-1.05,0.8c0.07-0.06,0.15-0.11,0.22-0.17c-0.09-0.06-0.18-0.11-0.27-0.17
				c-0.06-0.06-0.14-0.06-0.21-0.03c-0.33,0.14-0.49,0.37-0.9,0.29c-0.14-0.03-0.17-0.12-0.32-0.15c-0.51-0.09-0.74,0.24-1.24-0.21
				c-1.07-0.94,0.05-2.45,0.33-3.51C107.98,23.73,107.64,23.63,107.58,23.85L107.58,23.85z"/>
		</g>
	</g>
	<g>
		<g>
			<path class="st5" d="M103.51,21.17c0.26-0.18,0.58-0.66,0.11-0.83c-0.53-0.19-1.19,0.19-1.69,0.32c-0.24,0.06-0.37,0.1-0.56-0.06
				c-0.07-0.06-0.07-0.11-0.17-0.15c-0.23-0.09-0.53,0.09-0.77,0.08c-0.2-0.01-0.4-0.08-0.56-0.18c-0.12-0.08-0.21-0.21-0.33-0.28
				c-0.07-0.04-0.15-0.05-0.23-0.06c-0.17-0.03-0.21,0-0.28-0.19c-0.11-0.26-0.26-0.49-0.46-0.68c-0.17-0.16-0.18-0.21-0.08-0.44
				c0.08-0.19,0.2-0.37,0.3-0.56c0.08-0.14,0.16-0.38,0.33-0.43c0.1-0.03,0.17,0.01,0.27-0.05c0.08-0.05,0.12-0.13,0.17-0.19
				c0.16-0.2,0.24-0.21,0.48-0.24c0.18-0.02,0.35-0.05,0.46-0.22c0.07-0.1,0.08-0.26,0.2-0.32c0.1-0.05,0.29-0.02,0.4-0.04
				c0.18-0.03,0.29-0.09,0.42-0.21c0.14-0.13,0.13-0.17,0.34-0.14c0.12,0.02,0.23,0.07,0.35,0.07c0.26-0.01,0.4-0.28,0.66-0.23
				c0.26,0.06,0.45,0.22,0.73,0.13c0.24-0.08,0.4-0.1,0.63,0.01c0.13,0.06,0.27,0.11,0.4,0.15c0.37,0.11,0.76,0.18,1.05,0.45
				c0.17,0.15,0.41-0.1,0.25-0.25c-0.46-0.42-1.08-0.44-1.62-0.71c-0.24-0.12-0.37-0.16-0.63-0.08c-0.2,0.06-0.32,0.11-0.53,0.03
				c-0.13-0.05-0.25-0.11-0.39-0.12c-0.26-0.01-0.39,0.25-0.62,0.25c-0.23-0.01-0.43-0.17-0.67-0.06c-0.08,0.04-0.11,0.1-0.17,0.16
				c-0.16,0.18-0.21,0.19-0.42,0.21c-0.19,0.02-0.4,0.03-0.54,0.18c-0.07,0.08-0.07,0.16-0.12,0.25c-0.1,0.17-0.26,0.12-0.42,0.14
				c-0.27,0.03-0.34,0.14-0.51,0.32c-0.17,0.18-0.4,0.13-0.58,0.33c-0.23,0.26-0.39,0.68-0.55,0.99c-0.11,0.2-0.23,0.41-0.09,0.63
				c0.06,0.09,0.16,0.15,0.23,0.23c0.15,0.15,0.28,0.31,0.36,0.51c0.09,0.19,0.11,0.43,0.35,0.48c0.15,0.03,0.26-0.03,0.41,0.07
				c0.12,0.08,0.22,0.19,0.35,0.26c0.28,0.15,0.61,0.21,0.92,0.16c0.18-0.03,0.27-0.11,0.4-0.01c0.07,0.05,0.1,0.14,0.2,0.19
				c0.3,0.13,0.73-0.04,1.02-0.13c0.2-0.06,0.39-0.14,0.59-0.19c0.09-0.02,0.22-0.06,0.31-0.06c0.15,0.01,0.32,0.06,0.11,0.21
				C103.15,21,103.32,21.3,103.51,21.17L103.51,21.17z"/>
		</g>
	</g>
	<g>
		<g>
			<path class="st5" d="M103.53,20.79c-0.56,0.03-1.12,0.06-1.68,0.12c-0.39,0.04-0.94,0-1.28,0.21c-0.23,0.13-0.36,0.33-0.63,0.4
				c-0.16,0.04-0.32,0.02-0.47,0.09c-0.26,0.11-0.41,0.3-0.39,0.58c0.07-0.06,0.15-0.11,0.22-0.17c-0.6-0.13-0.68,0.42-1.03,0.74
				c-0.25,0.23-0.79,0.4-0.41,0.81c0.01-0.09,0.02-0.18,0.04-0.27c-0.19,0.1-0.5,0.25-0.6,0.46c-0.15,0.3-0.08,0.63-0.36,0.92
				c-0.09,0.09-0.05,0.21,0.04,0.27c0.07,0.05,0.13,0.1,0.2,0.15c-0.02-0.08-0.04-0.16-0.06-0.24c-0.25,0.35-0.41,0.83,0.06,1.07
				c-0.02-0.08-0.04-0.16-0.06-0.24c-0.29,0.63,0.5,0.74,0.77,1.14c0.12,0.18,0.13,0.31,0.35,0.42c0.24,0.11,0.51,0.07,0.76,0.04
				c-0.07-0.09-0.13-0.17-0.2-0.26c-0.21,0.32,0.03,0.66,0.39,0.69c0.13,0.01,0.24-0.05,0.36-0.05c0.38-0.02,0.35,0.08,0.6,0.1
				c0.22,0.01,0.58-0.27,0.74-0.19c0.12,0.06,0.08,0.23,0.28,0.28c0.27,0.05,0.42-0.22,0.67-0.23c0.15-0.01,0.26,0.11,0.44,0.05
				c0.09-0.03,0.16-0.11,0.25-0.13c0.31-0.07,0.21,0.07,0.41,0.09c0.19,0.02,0.32,0.01,0.48-0.13c0.08-0.07,0.13-0.19,0.2-0.26
				c0.39-0.33,0.32-0.09,0.6-0.11c0.24-0.01,0.39-0.05,0.59-0.2c0.2-0.15,0.39-0.51,0.65-0.5c0.13,0,0.2,0.12,0.36,0.07
				c0.25-0.07,0.44-0.46,0.58-0.65c0.21-0.3,0.4-0.61,0.55-0.94c0.19-0.43,0.33-0.78,0.83-0.92c0.22-0.06,0.13-0.39-0.09-0.34
				c-0.45,0.12-0.73,0.38-0.93,0.8c-0.15,0.31-0.27,0.62-0.46,0.92c-0.13,0.2-0.39,0.73-0.66,0.75c-0.14,0.01-0.23-0.12-0.4-0.06
				c-0.14,0.05-0.24,0.21-0.34,0.31c-0.11,0.11-0.23,0.27-0.38,0.34c-0.33,0.15-0.34-0.01-0.58-0.01c-0.18,0-0.3,0.03-0.44,0.15
				c-0.06,0.06-0.1,0.15-0.16,0.2c-0.61,0.47-0.21,0.08-0.5,0.07c-0.14-0.01-0.2-0.02-0.35,0.04c-0.08,0.03-0.15,0.1-0.22,0.13
				c-0.3,0.09-0.18-0.03-0.37-0.04c-0.21-0.01-0.22,0.06-0.4,0.11c-0.35,0.09-0.46-0.28-0.84-0.14c-0.09,0.03-0.17,0.12-0.26,0.15
				c-0.29,0.09-0.17-0.03-0.36-0.05c-0.13-0.01-0.22-0.02-0.36-0.03c-0.04,0-0.72,0.16-0.56-0.08c0.09-0.14-0.06-0.28-0.2-0.26
				c-0.29,0.04-0.49,0.04-0.68-0.21c-0.07-0.1-0.07-0.19-0.16-0.29c-0.13-0.14-0.76-0.35-0.65-0.59c0.04-0.08,0.03-0.19-0.06-0.24
				c-0.11-0.24-0.09-0.44,0.07-0.59c0.06-0.08,0.01-0.19-0.06-0.24c-0.07-0.05-0.13-0.1-0.2-0.15c0.01,0.09,0.02,0.18,0.04,0.27
				c0.17-0.17,0.36-0.37,0.42-0.61c0.09-0.4,0.03-0.47,0.48-0.71c0.1-0.05,0.11-0.2,0.04-0.27c-0.03-0.03,0.41-0.32,0.45-0.37
				c0.18-0.19,0.31-0.68,0.65-0.6c0.1,0.02,0.23-0.05,0.22-0.17c-0.02-0.33,0.68-0.3,0.88-0.39c0.36-0.16,0.47-0.42,0.92-0.47
				c0.77-0.09,1.54-0.14,2.31-0.18C103.75,21.13,103.75,20.78,103.53,20.79L103.53,20.79z"/>
		</g>
	</g>
	<g>
		<g>
			<path class="st5" d="M112.17,26.24c0,0.36,0,0.72,0.04,1.07c0.05,0.36,0.18,0.52,0.33,0.84c0.22,0.46,0.15,1.06,0.17,1.55
				c0.02,0.54,0.04,1.09,0.04,1.63c0.01,1.03-0.03,2.02-0.4,2.99c-0.16,0.41-0.35,0.81-0.5,1.23c-0.07,0.22-0.27,0.62-0.11,0.84
				c0.32,0.43,1.04-0.14,1.24-0.4c0.29-0.38,0.4-0.88,0.59-1.31c0.15-0.35,0.3-0.67,0.35-1.05c0.13-0.96,0.08-1.97,0.11-2.94
				c0.03-1.15,0.07-2.29,0.1-3.44c0-0.09-0.08-0.19-0.18-0.17c-0.75,0.09-0.81-1.18-1.14-1.63c-0.13-0.18-0.44,0-0.3,0.18
				c0.43,0.58,0.42,1.93,1.44,1.8c-0.06-0.06-0.12-0.12-0.18-0.17c-0.05,1.79-0.1,3.58-0.16,5.37c-0.01,0.45,0.01,0.92-0.13,1.35
				c-0.11,0.37-0.3,0.72-0.44,1.08c-0.07,0.18-0.62,1.47-0.97,0.95c-0.09-0.14,0.42-1.12,0.46-1.22c0.62-1.5,0.6-2.99,0.55-4.58
				c-0.02-0.64,0.09-1.48-0.15-2.09c-0.14-0.34-0.34-0.57-0.38-0.96c-0.03-0.31-0.03-0.62-0.03-0.93
				C112.52,26.01,112.17,26.01,112.17,26.24L112.17,26.24z"/>
		</g>
	</g>
	<g>
		<g>
			<path class="st5" d="M113.04,28.12c0.02-0.04,0.03-0.08,0.05-0.12c0.01-0.02,0.01-0.02,0,0c0-0.01,0.01-0.02,0.01-0.03
				c0.01-0.02,0.02-0.04,0.03-0.06c0.03-0.08,0.07-0.15,0.11-0.22c0.08-0.15,0.17-0.29,0.27-0.43c0.05-0.07,0.02-0.2-0.06-0.24
				c-0.09-0.05-0.18-0.02-0.24,0.06c-0.21,0.29-0.38,0.61-0.5,0.94c-0.03,0.09,0.04,0.2,0.12,0.22
				C112.92,28.27,113,28.21,113.04,28.12L113.04,28.12z"/>
		</g>
	</g>
	<g>
		<g>
			<path class="st5" d="M113.56,27.04c0.35-1.41,0.75-2.81,1.22-4.19c-0.11,0.01-0.21,0.03-0.32,0.04c0.49,0.73,0.83,1.63,0.71,2.52
				c-0.1,0.77-0.66,1.33-1.31,1.7c-0.2,0.11-0.02,0.41,0.18,0.3c0.73-0.41,1.34-1.04,1.47-1.9c0.15-0.98-0.21-1.99-0.75-2.8
				c-0.09-0.13-0.27-0.1-0.32,0.04c-0.46,1.38-0.87,2.78-1.22,4.19C113.17,27.16,113.51,27.26,113.56,27.04L113.56,27.04z"/>
		</g>
	</g>
	<g>
		<g>
			<path class="st5" d="M108.08,27.84c2.25-2.39,3.88-5.79,2.44-9.02c-0.09-0.21-0.39-0.03-0.3,0.18c1.37,3.08-0.26,6.34-2.38,8.6
				C107.68,27.76,107.93,28.01,108.08,27.84L108.08,27.84z"/>
		</g>
	</g>
	<g>
		<g>
			<path class="st5" d="M97.11,25.9c0.63,0.6,2.02,0.17,2.73,0c1.36-0.33,2.65-0.9,3.84-1.62c1.17-0.71,2.25-1.58,3.22-2.55
				c1.1-1.1,2.06-2.43,3.55-3.03c0.21-0.08,0.12-0.42-0.09-0.34c-1.12,0.44-1.96,1.25-2.77,2.12c-0.94,1.01-1.9,1.97-3.02,2.78
				c-1.08,0.78-2.26,1.44-3.51,1.9c-0.63,0.23-1.28,0.41-1.94,0.53c-0.43,0.08-1.38,0.32-1.77-0.05
				C97.2,25.5,96.95,25.75,97.11,25.9L97.11,25.9z"/>
		</g>
	</g>
	<g>
		<g>
			<path class="st5" d="M98.24,19.17c0.73-0.25,1.38-0.49,2.16-0.45c0.99,0.04,1.93-0.08,2.91-0.21c2.13-0.29,4.37-0.49,6.36,0.48
				c0.2,0.1,0.38-0.2,0.18-0.3c-1.93-0.94-4.06-0.85-6.14-0.58c-1.11,0.14-2.18,0.32-3.31,0.27c-0.81-0.03-1.49,0.2-2.25,0.47
				C97.94,18.91,98.03,19.25,98.24,19.17L98.24,19.17z"/>
		</g>
	</g>
	<g>
		<g>
			<path class="st5" d="M104.71,13.63c1.17,0.42,2.5,0.55,3.53,1.28c1.12,0.79,1.84,2.36,1.65,3.72c-0.03,0.22,0.31,0.32,0.34,0.09
				c0.21-1.45-0.46-3.03-1.6-3.96c-1.08-0.88-2.55-1.02-3.82-1.48C104.59,13.21,104.5,13.55,104.71,13.63L104.71,13.63z"/>
		</g>
	</g>
	<g>
		<g>
			<path class="st5" d="M110.38,19.07c0.7,0.12,1.39-0.1,2.09,0c0.6,0.09,1.16,0.35,1.7,0.63c1,0.52,1.99,1.12,3.16,1.04
				c0.22-0.02,0.23-0.37,0-0.35c-1.21,0.09-2.2-0.6-3.24-1.12c-0.48-0.24-0.97-0.45-1.5-0.53c-0.71-0.11-1.42,0.11-2.12-0.01
				C110.25,18.7,110.16,19.04,110.38,19.07L110.38,19.07z"/>
		</g>
	</g>
</g>
<g>
	<g>
		<g>
			<path class="st5" d="M137.8,26.53c-0.25-1.77-0.56-3.58-1.47-5.14c-0.95-1.64-2.44-3.03-3.68-4.45
				c-0.14-0.16-0.36,0.04-0.27,0.21c0.77,1.52,0.73,3.21,1.12,4.83c0.31,1.3,0.9,2.52,1.72,3.57c0.18,0.24,0.44,0.45,0.61,0.7
				c0.3,0.45,0.26,0.92,0.27,1.43c0.02,0.69,0.32,1.32,0.5,1.97c0.5,1.77,0.27,3.61,0.04,5.4c-0.01,0.05,0.04,0.13,0.09,0.15
				c0.49,0.21,0.98,0.42,1.47,0.63c0.13,0.06,0.25-0.01,0.26-0.15c0.22-1.9,0.46-3.8,0.95-5.65c0.12-0.44,0.26-0.87,0.33-1.31
				c0.06-0.34-0.01-0.74,0.21-1.03c0.14-0.18,0.55-0.35,0.74-0.51c0.26-0.21,0.49-0.45,0.71-0.71c0.98-1.15,1.52-2.58,2.01-3.98
				c0.58-1.66,1.13-3.32,1.28-5.08c0.02-0.18-0.24-0.23-0.33-0.09c-1.14,1.89-2.19,3.77-3.73,5.36c-1.15,1.18-2.29,2.49-2.16,4.25
				c0.02,0.22,0.37,0.23,0.35,0c-0.16-2.16,1.67-3.47,2.94-4.94c1.16-1.35,1.99-2.98,2.91-4.5c-0.11-0.03-0.22-0.06-0.33-0.09
				c-0.16,1.94-0.83,3.82-1.5,5.64c-0.66,1.8-1.55,3.56-3.32,4.48c-0.05,0.03-0.09,0.09-0.09,0.15c0.1,1.42-0.56,2.87-0.81,4.25
				c-0.23,1.24-0.37,2.5-0.52,3.76c0.09-0.05,0.18-0.1,0.26-0.15c-0.38-0.16-0.87-0.29-1.21-0.52c-0.04-0.03-0.23-0.06-0.24-0.1
				c-0.01-0.02,0.14-0.49,0.15-0.54c0.09-0.51,0.12-1.03,0.15-1.55c0.06-0.98,0.03-1.97-0.2-2.93c-0.12-0.49-0.31-0.96-0.44-1.45
				c-0.15-0.58-0.01-1.05-0.07-1.6c-0.07-0.64-0.63-1.02-1.01-1.51c-0.67-0.85-1.18-1.83-1.5-2.86c-0.56-1.82-0.43-3.77-1.31-5.5
				c-0.09,0.07-0.18,0.14-0.27,0.21c1.22,1.4,2.69,2.77,3.63,4.38c0.89,1.54,1.19,3.32,1.44,5.06
				C137.5,26.84,137.83,26.75,137.8,26.53L137.8,26.53z"/>
		</g>
	</g>
	<g>
		<g>
			<path class="st5" d="M136.7,22.11c-0.17-0.91-0.27-1.84-0.31-2.76c-0.04-0.91-0.04-1.85,0.22-2.73
				c-0.11,0.01-0.21,0.03-0.32,0.04c0.84,1.35,1.7,2.73,2.09,4.28c0.38,1.47,0.39,3.09,0.23,4.59c-0.02,0.22,0.33,0.22,0.35,0
				c0.17-1.53,0.14-3.18-0.24-4.68c-0.4-1.58-1.27-2.99-2.13-4.36c-0.08-0.13-0.28-0.1-0.32,0.04c-0.27,0.9-0.27,1.89-0.23,2.82
				c0.04,0.96,0.15,1.91,0.33,2.85C136.41,22.43,136.74,22.33,136.7,22.11L136.7,22.11z"/>
		</g>
	</g>
	<g>
		<g>
			<path class="st5" d="M133.68,10.95c-0.25-0.18-0.61-0.13-0.84,0.07c-0.26,0.23-0.32,0.61-0.27,0.94
				c0.05,0.36,0.24,0.69,0.45,0.98c0.22,0.31,0.46,0.62,0.71,0.91c0.23,0.26,0.5,0.55,0.87,0.6c0.33,0.04,0.62-0.14,0.71-0.46
				c0.09-0.3,0.02-0.65-0.07-0.95c-0.09-0.31-0.22-0.62-0.4-0.89c-0.19-0.31-0.43-0.59-0.69-0.85
				C134.01,11.16,133.84,11.06,133.68,10.95c-0.18-0.13-0.36,0.17-0.18,0.3c0.1,0.07,0.22,0.14,0.31,0.22
				c0.16,0.13,0.3,0.29,0.43,0.45c0.33,0.39,0.57,0.85,0.69,1.35c0.05,0.21,0.12,0.51-0.01,0.71c-0.17,0.25-0.5,0.07-0.67-0.08
				c-0.23-0.21-0.43-0.45-0.61-0.7c-0.17-0.23-0.35-0.45-0.5-0.7c-0.16-0.26-0.29-0.58-0.23-0.89c0.05-0.27,0.31-0.56,0.59-0.36
				C133.69,11.38,133.86,11.08,133.68,10.95z"/>
		</g>
	</g>
	<g>
		<g>
			<path class="st5" d="M135.12,13.66c0.16,0.17,0.4,0.2,0.61,0.11c0.21-0.1,0.35-0.31,0.41-0.53c0.15-0.52-0.07-1.06-0.31-1.51
				c-0.42-0.79-1.09-1.66-2.1-1.49c-0.35,0.06-0.93,0.38-0.8,0.81c0.07,0.21,0.4,0.12,0.34-0.09c-0.03-0.1,0.15-0.22,0.22-0.27
				c0.16-0.1,0.34-0.13,0.53-0.12c0.44,0.02,0.79,0.29,1.05,0.62c0.29,0.36,0.55,0.81,0.69,1.24c0.08,0.23,0.11,0.48,0.04,0.72
				c-0.05,0.16-0.25,0.46-0.44,0.26C135.22,13.25,134.97,13.5,135.12,13.66L135.12,13.66z"/>
		</g>
	</g>
	<g>
		<g>
			<path class="st5" d="M134.26,18.69c-0.3-1.59-0.31-3.27-0.24-4.88c0.01-0.23-0.34-0.22-0.35,0c-0.07,1.65-0.05,3.35,0.25,4.97
				C133.96,19,134.3,18.91,134.26,18.69L134.26,18.69z"/>
		</g>
	</g>
	<g>
		<g>
			<path class="st5" d="M135.12,19.68c-0.42-1.85-0.61-3.76-0.79-5.64c-0.02-0.22-0.37-0.22-0.35,0c0.19,1.91,0.38,3.85,0.8,5.73
				C134.84,20,135.17,19.9,135.12,19.68L135.12,19.68z"/>
		</g>
	</g>
	<g>
		<g>
			<path class="st5" d="M137.23,13.19c-0.03,0.4,0.07,0.89,0.51,1.01c0.43,0.12,0.71-0.33,0.91-0.63c0.51-0.74,0.9-1.66,0.97-2.57
				c0.03-0.36-0.02-0.89-0.36-1.11c-0.24-0.15-0.6,0.02-0.78,0.21c-0.13,0.13-0.2,0.32-0.28,0.48c-0.11,0.21-0.21,0.43-0.31,0.65
				C137.62,11.84,137.3,12.51,137.23,13.19c-0.02,0.22,0.33,0.22,0.35,0c0.04-0.46,0.25-0.92,0.43-1.34
				c0.16-0.38,0.34-0.75,0.52-1.11c0.06-0.12,0.12-0.25,0.2-0.36c0.04-0.05,0.05-0.05,0.1-0.08c0.05-0.03,0.11-0.08,0.16-0.09
				c0.14-0.04,0.18,0.08,0.23,0.19c0.14,0.34,0.06,0.74-0.02,1.08c-0.08,0.36-0.2,0.71-0.35,1.04c-0.17,0.37-0.37,0.72-0.62,1.04
				c-0.12,0.16-0.27,0.41-0.49,0.26c-0.2-0.13-0.18-0.42-0.17-0.63C137.6,12.97,137.25,12.97,137.23,13.19z"/>
		</g>
	</g>
	<g>
		<g>
			<path class="st5" d="M139.56,10.63c0.48-0.35,0.91,0.05,0.97,0.56c0.05,0.53-0.05,1.1-0.19,1.61c-0.13,0.46-0.3,1.06-0.68,1.37
				c-0.18,0.14-0.44,0.23-0.66,0.12c-0.22-0.11-0.33-0.36-0.43-0.57c-0.1-0.2-0.4-0.02-0.3,0.18c0.13,0.27,0.29,0.55,0.56,0.69
				c0.27,0.14,0.58,0.12,0.85-0.02c0.6-0.3,0.84-1.09,1.01-1.68c0.1-0.36,0.16-0.72,0.2-1.09c0.03-0.35,0.05-0.71-0.08-1.04
				c-0.22-0.57-0.89-0.8-1.4-0.43C139.2,10.46,139.38,10.77,139.56,10.63L139.56,10.63z"/>
		</g>
	</g>
	<g>
		<g>
			<path class="st5" d="M138.44,20c-0.13-1.01-0.24-2.02-0.33-3.03c-0.04-0.48-0.08-0.96-0.09-1.44c-0.01-0.43-0.1-1.04,0.14-1.41
				c0.13-0.19-0.18-0.36-0.3-0.18c-0.25,0.38-0.2,0.93-0.2,1.37c0.01,0.5,0.04,1,0.08,1.5c0.09,1.07,0.2,2.14,0.34,3.2
				C138.12,20.22,138.47,20.22,138.44,20L138.44,20z"/>
		</g>
	</g>
	<g>
		<g>
			<path class="st5" d="M138.86,21.64c0.22-1.33-0.01-2.75-0.15-4.07c-0.08-0.72-0.16-1.43-0.21-2.15c-0.03-0.47-0.1-1,0.02-1.46
				c0.06-0.22-0.28-0.31-0.34-0.09c-0.12,0.45-0.07,0.94-0.05,1.39c0.04,0.71,0.13,1.41,0.2,2.12c0.14,1.35,0.41,2.82,0.18,4.18
				C138.49,21.76,138.82,21.86,138.86,21.64L138.86,21.64z"/>
		</g>
	</g>
	<g>
		<g>
			<path class="st5" d="M143.34,12.2c0.15-0.02,0.54-0.03,0.58,0.17c0.03,0.15-0.12,0.28-0.22,0.36c-0.13,0.11-0.26,0.21-0.39,0.32
				c-0.51,0.4-1.04,0.79-1.63,1.07c-0.15,0.07-0.3,0.13-0.45,0.18c-0.08,0.03-0.3,0.11-0.29-0.03c0.01-0.15,0.1-0.32,0.15-0.46
				c0.06-0.17,0.11-0.34,0.19-0.5c0.25-0.48,0.84-0.72,1.31-0.91c0.27-0.11,0.51-0.15,0.8-0.2c0.22-0.04,0.13-0.38-0.09-0.34
				c-0.16,0.03-0.33,0.04-0.49,0.09c-0.17,0.05-0.33,0.13-0.49,0.19c-0.29,0.12-0.59,0.26-0.84,0.45c-0.33,0.25-0.51,0.53-0.65,0.92
				c-0.07,0.2-0.15,0.4-0.2,0.61c-0.05,0.17-0.04,0.35,0.09,0.47c0.26,0.24,0.7,0.02,0.97-0.09c0.76-0.32,1.42-0.83,2.05-1.35
				c0.28-0.23,0.7-0.57,0.48-0.99c-0.15-0.29-0.58-0.35-0.88-0.31C143.11,11.87,143.11,12.22,143.34,12.2z"/>
		</g>
	</g>
	<g>
		<g>
			<path class="st5" d="M140.87,14.6c-0.17,0.35-0.03,0.76,0.3,0.96c0.38,0.23,0.85,0.13,1.21-0.08c0.37-0.21,0.72-0.5,1.04-0.79
				c0.3-0.27,0.58-0.58,0.76-0.95c0.15-0.31,0.41-1.12-0.19-1.12c-0.23,0-0.23,0.35,0,0.35c0.13,0-0.05,0.47-0.08,0.53
				c-0.07,0.16-0.17,0.31-0.27,0.46c-0.23,0.3-0.51,0.55-0.8,0.78c-0.29,0.23-0.62,0.52-1,0.59c-0.18,0.03-0.39,0.02-0.53-0.11
				c-0.12-0.1-0.19-0.29-0.12-0.44C141.27,14.57,140.97,14.4,140.87,14.6L140.87,14.6z"/>
		</g>
	</g>
	<g>
		<g>
			<path class="st5" d="M141.47,15.5c-0.63,1.23-0.95,2.6-1.19,3.95c-0.25,1.39-0.4,2.8-0.52,4.21c-0.02,0.22,0.33,0.22,0.35,0
				c0.12-1.38,0.26-2.76,0.51-4.12c0.24-1.32,0.54-2.67,1.16-3.87C141.87,15.47,141.57,15.3,141.47,15.5L141.47,15.5z"/>
		</g>
	</g>
	<g>
		<g>
			<path class="st5" d="M141.03,22.61c0.01-2.39,0.35-4.87,1.25-7.1c0.08-0.21-0.25-0.3-0.34-0.09c-0.91,2.26-1.24,4.77-1.26,7.19
				C140.68,22.83,141.03,22.83,141.03,22.61L141.03,22.61z"/>
		</g>
	</g>
</g>
<g>
	<g>
		<g>
			<path class="st6" d="M131.9,55.31c-3.16,0.91-4.84,3.91-5.62,6.92c-0.74,2.87-0.91,6.41,1.45,8.62c1.01,0.95,2.7,1.76,4.12,1.62
				c1.37-0.14,3-1,3.88-2.05c1.89-2.26,2.4-5.7,1.72-8.5c-0.21-0.88-0.58-1.71-0.94-2.54c-0.36-0.82-0.68-1.68-1.18-2.43
				C134.57,55.78,133.29,55.08,131.9,55.31c-0.22,0.04-0.13,0.37,0.09,0.34c1.54-0.25,2.7,0.78,3.37,2.06
				c0.62,1.19,1.21,2.5,1.6,3.78c0.77,2.54,0.46,5.38-0.84,7.69c-0.77,1.38-2.01,2.27-3.5,2.76c-1.54,0.51-3.38-0.2-4.56-1.25
				c-2.19-1.94-2.19-5.14-1.59-7.78c0.7-3.07,2.26-6.31,5.52-7.25C132.21,55.58,132.12,55.24,131.9,55.31L131.9,55.31z"/>
		</g>
	</g>
	<g>
		<g>
			<path class="st6" d="M141.07,53.75c1.18-0.69,2.46-0.35,3.68,0.13c1.27,0.5,2.43,1.3,3.35,2.32c1.96,2.16,2.64,5.28,1.88,8.09
				c-0.37,1.36-1.08,2.86-2.42,3.51c-1.28,0.62-3.18,0.57-4.49,0.07c-1.44-0.56-2.64-1.9-3.48-3.15c-0.84-1.24-1.33-2.71-1.42-4.2
				c-0.08-1.49,0.29-2.81,0.98-4.12C139.61,55.49,140.21,54.33,141.07,53.75c0.19-0.13,0.01-0.43-0.18-0.3
				c-0.83,0.56-1.42,1.63-1.9,2.48c-0.69,1.24-1.17,2.54-1.19,3.96c-0.03,1.6,0.39,3.21,1.21,4.58c0.81,1.37,2.03,2.77,3.47,3.51
				c1.28,0.66,3.01,0.76,4.4,0.42c1.48-0.36,2.41-1.47,3-2.82c1.27-2.9,0.9-6.45-1.01-8.99c-0.97-1.3-2.29-2.32-3.78-2.95
				c-1.37-0.58-2.85-0.98-4.2-0.2C140.7,53.56,140.87,53.86,141.07,53.75z"/>
		</g>
	</g>
	<g>
		<g>
			<path class="st6" d="M133.63,58.69c0.23,0,0.23-0.35,0-0.35C133.41,58.34,133.41,58.69,133.63,58.69L133.63,58.69z"/>
		</g>
	</g>
	<g>
		<g>
			<path class="st6" d="M133.68,59.86c0,0.03,0,0.06,0.01,0.08c0,0.03,0.01,0.06,0.02,0.08c0.01,0.03,0.02,0.07,0.04,0.1
				c0.02,0.03,0.04,0.06,0.06,0.09c0.02,0.02,0.03,0.03,0.06,0.04c0.02,0.01,0.04,0.02,0.07,0.02c0.02,0,0.05,0,0.07-0.02
				c0.02-0.01,0.04-0.02,0.06-0.04c0.03-0.03,0.05-0.08,0.05-0.12c0-0.02,0-0.03-0.01-0.05c-0.01-0.03-0.02-0.06-0.04-0.08
				c0,0,0,0,0,0c0.01,0.01,0.02,0.02,0.03,0.04c-0.02-0.02-0.03-0.05-0.04-0.08c0.01,0.01,0.01,0.03,0.02,0.04
				c-0.01-0.03-0.02-0.06-0.02-0.09c0,0.02,0,0.03,0.01,0.05c0-0.02,0-0.04,0-0.06c0-0.02,0-0.05-0.02-0.07
				c-0.01-0.02-0.02-0.04-0.04-0.06c-0.02-0.02-0.03-0.03-0.06-0.04c-0.02-0.01-0.04-0.02-0.07-0.02c-0.05,0-0.09,0.02-0.12,0.05
				C133.7,59.77,133.68,59.81,133.68,59.86L133.68,59.86z"/>
		</g>
	</g>
	<g>
		<g>
			<path class="st6" d="M134.94,59.35c0.04,0.08,0.08,0.15,0.11,0.23c0.01,0.02,0.03,0.04,0.05,0.05c0.02,0.02,0.04,0.03,0.06,0.03
				c0.02,0.01,0.05,0.01,0.07,0c0.02,0,0.04-0.01,0.07-0.02c0.04-0.02,0.07-0.06,0.08-0.1c0-0.02,0-0.03,0.01-0.05
				c0-0.03-0.01-0.06-0.02-0.09c-0.04-0.08-0.08-0.15-0.11-0.23c-0.01-0.02-0.03-0.04-0.05-0.05c-0.02-0.02-0.04-0.03-0.06-0.03
				c-0.02-0.01-0.05-0.01-0.07,0c-0.02,0-0.04,0.01-0.07,0.02c-0.04,0.02-0.07,0.06-0.08,0.1c0,0.02,0,0.03-0.01,0.05
				C134.92,59.29,134.93,59.32,134.94,59.35L134.94,59.35z"/>
		</g>
	</g>
	<g>
		<g>
			<path class="st6" d="M142.1,55.23c0.03,0.02,0.07,0.03,0.1,0.04c0.03,0.01,0.06,0.01,0.09,0.02c0.03,0,0.06,0.01,0.09,0.01
				c0.04,0,0.08-0.01,0.11-0.01c0.02-0.01,0.04-0.02,0.06-0.03c0.02-0.01,0.03-0.03,0.05-0.05c0.01-0.02,0.02-0.04,0.02-0.07
				c0.01-0.02,0-0.05,0-0.07c-0.01-0.04-0.04-0.08-0.08-0.1c-0.01-0.01-0.03-0.01-0.04-0.02c-0.03-0.01-0.06-0.01-0.09,0
				c-0.01,0-0.01,0-0.02,0c0.02,0,0.03,0,0.05-0.01c-0.04,0-0.08,0-0.12,0c0.02,0,0.03,0,0.05,0.01c-0.04-0.01-0.08-0.02-0.12-0.03
				c0.01,0.01,0.03,0.01,0.04,0.02c0,0-0.01,0-0.01-0.01c-0.02-0.01-0.04-0.02-0.07-0.02c-0.02-0.01-0.05,0-0.07,0
				c-0.04,0.01-0.08,0.04-0.1,0.08c-0.02,0.04-0.03,0.09-0.02,0.13C142.04,55.16,142.06,55.21,142.1,55.23L142.1,55.23z"/>
		</g>
	</g>
	<g>
		<g>
			<path class="st6" d="M143.84,56.25c0.1,0.04,0.2,0.08,0.3,0.11c0.02,0.01,0.05,0.01,0.07,0c0.02,0,0.04-0.01,0.07-0.02
				c0.04-0.02,0.07-0.06,0.08-0.1c0.01-0.04,0.01-0.1-0.02-0.13c-0.01-0.01-0.02-0.02-0.03-0.04c-0.02-0.02-0.05-0.04-0.08-0.05
				c-0.1-0.04-0.2-0.08-0.3-0.11c-0.02-0.01-0.05-0.01-0.07,0c-0.02,0-0.04,0.01-0.07,0.02c-0.04,0.02-0.07,0.06-0.08,0.1
				c-0.01,0.04-0.01,0.1,0.02,0.13c0.01,0.01,0.02,0.02,0.03,0.04C143.78,56.23,143.81,56.25,143.84,56.25L143.84,56.25z"/>
		</g>
	</g>
	<g>
		<g>
			<path class="st6" d="M143.57,54.74c0.09,0.05,0.18,0.1,0.26,0.16c-0.01-0.01-0.02-0.02-0.04-0.03c0.06,0.04,0.11,0.09,0.16,0.14
				c0.03,0.03,0.08,0.05,0.12,0.05c0.04,0,0.09-0.02,0.12-0.05c0.06-0.07,0.07-0.18,0-0.25c-0.13-0.13-0.28-0.24-0.45-0.33
				c-0.04-0.02-0.09-0.03-0.13-0.02c-0.04,0.01-0.08,0.04-0.1,0.08c-0.02,0.04-0.03,0.09-0.02,0.13
				C143.5,54.67,143.53,54.72,143.57,54.74L143.57,54.74z"/>
		</g>
	</g>
</g>
<g>
	<g>
		<g>
			<path class="st6" d="M106.84,57.93c-0.34,0.93-0.01,2.04,0.83,2.59c0.39,0.26,0.76,0.35,0.74,0.9c-0.01,0.36-0.07,0.71-0.06,1.07
				c0.01,0.38,0.07,0.76,0.1,1.13c0.04,0.38,0.18,1.18-0.16,1.41c-0.59,0.41-1.66-0.4-2.08-0.79c-0.59-0.55-0.97-1.3-1.38-1.98
				c-0.44-0.73-0.88-1.45-1.31-2.18c-0.44-0.74-0.76-1.46-0.73-2.34c0.01-0.4,0.01-1,0.28-1.33c0.38-0.45,0.95-0.24,1.37,0.02
				c0.81,0.49,1.58,1.06,2.36,1.58c0.19,0.13,0.36-0.18,0.18-0.3c-0.85-0.57-1.7-1.28-2.63-1.73c-0.52-0.26-1.21-0.29-1.58,0.24
				c-0.43,0.6-0.4,1.66-0.28,2.34c0.16,0.91,0.72,1.7,1.19,2.47c0.92,1.53,1.71,3.46,3.44,4.23c0.47,0.21,1.26,0.43,1.6-0.13
				c0.16-0.28,0.13-0.68,0.12-0.98c-0.02-0.53-0.11-1.05-0.14-1.57c-0.02-0.49,0.13-1.01,0.04-1.48c-0.07-0.37-0.29-0.56-0.61-0.73
				c-0.86-0.46-1.3-1.4-0.95-2.35C107.25,57.82,106.92,57.72,106.84,57.93L106.84,57.93z"/>
		</g>
	</g>
	<g>
		<g>
			<path class="st6" d="M102.57,58.59c-0.5,0.48-1.05,0.94-1.5,1.47c-0.33,0.4-0.56,0.86-0.76,1.34c-0.22,0.54-0.41,1.09-0.71,1.59
				c-0.34,0.55-0.85,0.82-1.28,1.27c-0.64,0.66-0.65,2,0.42,2.23c0.48,0.1,0.92-0.17,1.31-0.43c0.57-0.38,1.14-0.55,1.82-0.65
				c1.5-0.22,3.03-0.18,4.5-0.58c0.22-0.06,0.13-0.4-0.09-0.34c-1.42,0.38-2.91,0.35-4.36,0.56c-0.68,0.09-1.3,0.23-1.88,0.6
				c-0.26,0.17-0.52,0.38-0.83,0.46c-0.49,0.14-0.93-0.17-1-0.66c-0.12-0.85,0.77-1.21,1.26-1.72c0.39-0.41,0.64-0.91,0.85-1.43
				c0.25-0.59,0.45-1.22,0.81-1.76c0.44-0.65,1.11-1.17,1.68-1.71C102.98,58.68,102.74,58.44,102.57,58.59L102.57,58.59z"/>
		</g>
	</g>
	<g>
		<g>
			<path class="st6" d="M107.18,57.93C107.17,57.9,107.17,57.96,107.18,57.93c0-0.05-0.02,0.03,0-0.02
				c0.01-0.02,0.01-0.03,0.02-0.05c-0.01,0.03,0.01-0.02,0.01-0.02c0.04-0.06,0.07-0.1,0.12-0.15c0.05-0.05,0.08-0.08,0.15-0.11
				c-0.04,0.02,0.02,0,0.03-0.01c0.01,0,0.02,0,0.04,0c0.04,0,0.08,0,0.12,0.01c0.08,0.02,0.15,0.06,0.22,0.11
				c0.07,0.05,0.15,0.08,0.22,0.11c0.15,0.06,0.34,0.12,0.5,0.06c0.09-0.03,0.15-0.12,0.12-0.22c-0.02-0.08-0.13-0.16-0.22-0.12
				c-0.01,0-0.05,0.01-0.04,0.01c0.02,0-0.04,0-0.05,0c-0.02,0-0.06-0.01-0.09-0.02c-0.09-0.02-0.15-0.05-0.23-0.1
				c-0.09-0.05-0.17-0.11-0.27-0.15c-0.11-0.04-0.24-0.06-0.36-0.05c-0.19,0.02-0.35,0.14-0.47,0.28c-0.12,0.14-0.23,0.33-0.17,0.52
				C106.9,58.24,107.24,58.15,107.18,57.93L107.18,57.93z"/>
		</g>
	</g>
	<g>
		<g>
			<path class="st6" d="M108.71,57.78c0.21-0.29,0.46-0.54,0.74-0.75c-0.07-0.01-0.14-0.02-0.21-0.03c0.06,0.06,0.04,0.19,0.06,0.27
				c0.02,0.09,0.05,0.17,0.12,0.24c0.15,0.15,0.36,0.16,0.47,0.36c0.11,0.19,0.11,0.39,0.13,0.6c0.01,0.1,0.02,0.2,0.06,0.3
				c0.04,0.1,0.14,0.15,0.19,0.24c0.1,0.21-0.4,0.29-0.52,0.35c-0.2,0.09-0.38,0.24-0.53,0.4c-0.35,0.36-0.62,0.78-0.81,1.25
				c-0.09,0.21,0.25,0.3,0.34,0.09c0.21-0.5,0.55-1.04,1.01-1.35c0.3-0.2,1.04-0.27,0.87-0.82c-0.04-0.12-0.14-0.16-0.2-0.26
				c-0.06-0.1-0.05-0.23-0.06-0.34c-0.01-0.21-0.05-0.42-0.15-0.61c-0.05-0.09-0.11-0.18-0.19-0.25c-0.09-0.08-0.19-0.1-0.29-0.17
				c-0.11-0.07-0.09-0.18-0.11-0.3c-0.02-0.1-0.05-0.17-0.13-0.24c-0.05-0.05-0.15-0.07-0.21-0.03c-0.34,0.25-0.62,0.54-0.87,0.88
				C108.27,57.78,108.58,57.96,108.71,57.78L108.71,57.78z"/>
		</g>
	</g>
	<g>
		<g>
			<path class="st6" d="M98.18,64.7c-1.09-0.18-2.19-0.34-3.29-0.47c0.05,0.09,0.1,0.18,0.15,0.26c0.85-1.7,2.13-3.11,3.5-4.41
				c0.66-0.63,1.34-1.38,2.11-1.87c0.39-0.25,0.85-0.37,1.26-0.59c0.39-0.21,0.71-0.5,0.98-0.85c0.14-0.18-0.11-0.43-0.25-0.25
				c-0.32,0.42-0.72,0.72-1.2,0.93c-0.4,0.18-0.81,0.32-1.16,0.59c-0.74,0.57-1.41,1.24-2.08,1.88c-1.35,1.29-2.6,2.71-3.45,4.39
				c-0.06,0.13,0.02,0.25,0.15,0.26c1.07,0.13,2.13,0.28,3.2,0.46C98.31,65.07,98.41,64.73,98.18,64.7L98.18,64.7z"/>
		</g>
	</g>
	<g>
		<g>
			<path class="st6" d="M98.66,66.35c-0.1,0.65-0.26,1.28-0.48,1.9c-0.1,0.29-0.56,0.95-0.29,1.26c0.26,0.3,0.93,0.11,1.26,0.06
				c0.68-0.1,1.34-0.3,2-0.5c1.16-0.36,2.35-0.72,3.39-1.35c1.06-0.64,1.8-1.67,2.85-2.32c0.19-0.12,0.02-0.42-0.18-0.3
				c-0.88,0.54-1.51,1.37-2.34,1.98c-0.89,0.66-1.93,1.04-2.98,1.38c-1.1,0.36-2.23,0.76-3.4,0.83c-0.41,0.02-0.3-0.15-0.17-0.47
				c0.1-0.23,0.19-0.47,0.27-0.71c0.18-0.54,0.31-1.1,0.4-1.67C99.03,66.22,98.7,66.13,98.66,66.35L98.66,66.35z"/>
		</g>
	</g>
	<g>
		<g>
			<path class="st6" d="M104.61,67.31c-0.47,1.17-1.44,1.7-2.58,2.07c-1.04,0.34-2.14,0.69-3.25,0.65c-1.1-0.04-2.01-0.67-3.09-0.85
				c-1.11-0.19-2.79-0.46-2.2-2.03c0.19-0.5,0.53-0.92,0.73-1.42c0.17-0.43,0.26-0.89,0.36-1.34c0.21-0.89,0.55-1.72,1.04-2.49
				c1.01-1.55,2.56-2.7,4.34-3.22c0.22-0.06,0.12-0.4-0.09-0.34c-1.55,0.45-2.94,1.36-3.97,2.6c-0.51,0.62-0.94,1.31-1.25,2.05
				c-0.35,0.84-0.43,1.74-0.75,2.58c-0.31,0.79-1.05,1.52-0.87,2.43c0.13,0.67,0.72,1.09,1.34,1.28c0.43,0.14,0.88,0.17,1.32,0.25
				c0.51,0.09,0.96,0.28,1.43,0.47c0.9,0.37,1.79,0.45,2.75,0.3c1.08-0.17,2.21-0.5,3.21-0.95c0.88-0.4,1.5-1.05,1.86-1.95
				C105.03,67.19,104.69,67.1,104.61,67.31L104.61,67.31z"/>
		</g>
	</g>
	<g>
		<g>
			<path class="st6" d="M109.46,56.99c0.14-1.58,0.39-3.19,0.38-4.78c-0.01-1.57-0.41-3.1-0.81-4.61c-0.06-0.22-0.4-0.13-0.34,0.09
				c0.41,1.53,0.82,3.09,0.8,4.69c-0.02,1.53-0.24,3.08-0.38,4.61C109.09,57.21,109.44,57.21,109.46,56.99L109.46,56.99z"/>
		</g>
	</g>
	<g>
		<g>
			<path class="st6" d="M110.6,59.27c1.45-0.4,2.94-0.11,4.38,0.23c1.2,0.28,2.48,0.55,3.37,1.46c0.16,0.16,0.41-0.09,0.25-0.25
				c-0.94-0.95-2.27-1.25-3.53-1.55c-1.5-0.35-3.05-0.64-4.57-0.23C110.29,58.99,110.39,59.33,110.6,59.27L110.6,59.27z"/>
		</g>
	</g>
	<g>
		<g>
			<path class="st6" d="M106.79,57.55c-0.18-0.84-0.28-1.71-0.26-2.57c0.01-0.26,0.02-0.5,0.27-0.65c0.14-0.08,0.32-0.12,0.48-0.16
				c0.35-0.08,0.69-0.17,1.03-0.31c0.52-0.22,1.08-0.52,1.29-1.08c0.14-0.37,0.17-0.78,0.24-1.16c0.08-0.45,0.16-0.9,0.24-1.36
				c0.04-0.22-0.3-0.31-0.34-0.09c-0.08,0.45-0.16,0.9-0.24,1.36c-0.07,0.41-0.09,0.91-0.29,1.28c-0.38,0.69-1.43,0.87-2.12,1.05
				c-0.24,0.06-0.51,0.15-0.68,0.34c-0.22,0.24-0.21,0.55-0.22,0.85c-0.01,0.87,0.08,1.74,0.27,2.6
				C106.5,57.87,106.83,57.77,106.79,57.55L106.79,57.55z"/>
		</g>
	</g>
	<g>
		<g>
			<path class="st6" d="M106.08,57.17c-0.14-0.77-0.31-1.57-0.29-2.36c0.01-0.38,0.1-0.75,0.46-0.94c0.33-0.17,0.7-0.26,1.03-0.42
				c0.34-0.16,0.68-0.35,1-0.54c0.28-0.17,0.61-0.32,0.83-0.56c0.21-0.23,0.3-0.53,0.4-0.81c0.15-0.41,0.29-0.82,0.44-1.23
				c0.08-0.21-0.26-0.3-0.34-0.09c-0.15,0.41-0.29,0.82-0.44,1.23c-0.08,0.22-0.15,0.48-0.31,0.66c-0.13,0.15-0.32,0.24-0.49,0.34
				c-0.34,0.21-0.69,0.41-1.05,0.59c-0.37,0.19-0.76,0.31-1.15,0.48c-0.56,0.24-0.75,0.76-0.75,1.34c0,0.8,0.16,1.62,0.31,2.4
				C105.79,57.49,106.13,57.39,106.08,57.17L106.08,57.17z"/>
		</g>
	</g>
	<g>
		<g>
			<path class="st6" d="M105.23,56.36c-0.23-0.47-0.52-0.88-1.08-0.96c-0.29-0.04-0.59,0-0.88,0c-0.33,0-0.66-0.04-0.99-0.09
				c-0.31-0.05-0.61-0.1-0.92-0.14c-0.19-0.03-0.29-0.08-0.34-0.28c-0.03-0.13-0.04-0.27-0.07-0.4c-0.15-0.59-0.49-1.12-0.62-1.72
				c-0.05-0.22-0.38-0.13-0.34,0.09c0.13,0.61,0.49,1.15,0.63,1.75c0.05,0.23,0.04,0.5,0.2,0.69c0.19,0.21,0.51,0.21,0.77,0.24
				c0.62,0.09,1.23,0.22,1.86,0.2c0.31-0.01,0.66-0.07,0.94,0.08c0.27,0.15,0.41,0.45,0.54,0.71
				C105.02,56.74,105.33,56.56,105.23,56.36L105.23,56.36z"/>
		</g>
	</g>
	<g>
		<g>
			<path class="st6" d="M103.26,55.88c-0.52,0.04-1.03-0.01-1.55,0c-0.37,0.01-0.95,0.18-1.14-0.26c-0.09-0.22-0.16-0.45-0.23-0.67
				c-0.08-0.23-0.16-0.46-0.23-0.69c-0.12-0.44-0.17-0.96,0.17-1.31c0.16-0.16-0.09-0.41-0.25-0.25c-0.37,0.38-0.42,0.91-0.32,1.41
				c0.06,0.29,0.16,0.57,0.26,0.85c0.09,0.27,0.17,0.55,0.28,0.81c0.21,0.5,0.68,0.52,1.16,0.48c0.62-0.05,1.23,0.04,1.85-0.01
				C103.48,56.21,103.48,55.86,103.26,55.88L103.26,55.88z"/>
		</g>
	</g>
	<g>
		<g>
			<path class="st6" d="M98.33,58.9c-0.34-0.19-0.67-0.44-1.03-0.59c-0.16-0.07-0.29-0.11-0.45,0c-0.2,0.15-0.33,0.48-0.46,0.69
				c-0.21,0.34-0.42,0.69-0.63,1.03c-0.68,1.13-1.61,2.39-1.64,3.76c0.04-0.06,0.09-0.11,0.13-0.17c-0.41,0.17-0.82,0.28-1.26,0.32
				c-0.39,0.03-0.78-0.04-1.18-0.02c-0.26,0.01-0.17-0.06,0.04-0.09c0.19-0.03,0.38-0.05,0.58-0.08c0.43-0.06,0.86-0.11,1.29-0.17
				c0.09-0.01,0.18-0.07,0.17-0.17c-0.01-0.43,0.23-0.85,0.41-1.24c0.14-0.29,0.28-0.58,0.44-0.86c0.32-0.59,0.67-1.16,1.05-1.71
				c0.19-0.29,0.39-0.57,0.6-0.85c0.19-0.26,0.37-0.59,0.61-0.81c0.42-0.37,0.75-0.04,1.1,0.23c0.3,0.23,0.6,0.47,0.91,0.7
				c0.18,0.14,0.43-0.11,0.25-0.25c-0.36-0.28-0.72-0.56-1.08-0.84c-0.24-0.18-0.5-0.4-0.82-0.4c-0.33,0-0.56,0.23-0.74,0.47
				c-0.25,0.32-0.49,0.65-0.73,0.98c-0.51,0.72-0.99,1.45-1.41,2.22c-0.21,0.38-0.41,0.78-0.58,1.18c-0.17,0.37-0.35,0.74-0.34,1.16
				c0.06-0.06,0.12-0.12,0.18-0.17c-0.67,0.09-1.35,0.16-2.01,0.27c-0.3,0.05-0.74,0.22-0.58,0.62c0.06,0.16,0.18,0.2,0.34,0.2
				c0.16,0,0.31-0.05,0.47-0.05c0.16,0,0.32,0.02,0.48,0.03c0.66,0.04,1.31-0.08,1.92-0.33c0.07-0.03,0.13-0.08,0.13-0.17
				c0.03-1.16,0.79-2.23,1.36-3.19c0.31-0.52,0.62-1.04,0.94-1.55c0.06-0.09,0.15-0.34,0.24-0.39c0.14-0.07,0.18-0.01,0.3,0.06
				c0.28,0.16,0.56,0.32,0.83,0.48C98.34,59.31,98.52,59.01,98.33,58.9L98.33,58.9z"/>
		</g>
	</g>
	<g>
		<g>
			<path class="st6" d="M102.68,69.55c0,0.22-0.01,0.45-0.03,0.67c-0.02,0.15,0,0.27-0.11,0.32c-0.07,0.03-0.25,0-0.32,0.01
				c-0.5,0.01-1,0.01-1.5,0.02c-0.94,0.01-1.91,0.06-2.85-0.04c-0.62-0.06-1.33-0.35-1.8,0.22c-0.26,0.31-0.39,0.75-0.56,1.12
				c-0.21,0.43-0.43,0.86-0.67,1.28c-0.06,0.11,0,0.22,0.1,0.26c1.03,0.4,1.29-0.71,1.62-1.4c0.06-0.13,0.13-0.31,0.22-0.42
				c0.23-0.28,0.43-0.23,0.7-0.22c0.26,0.01,0.52,0.02,0.78,0.04c0.58,0.05,1.13,0.1,1.72,0.07c0.61-0.03,1.21-0.06,1.82-0.09
				c0.46-0.02,0.93-0.02,1.34-0.26c0.78-0.45,0.99-1.39,0.61-2.17c-0.1-0.2-0.4-0.03-0.3,0.18c0.25,0.52,0.17,1.14-0.27,1.53
				c-0.38,0.35-0.9,0.35-1.38,0.37c-0.95,0.04-1.93,0.17-2.87,0.09c-0.43-0.04-0.86-0.09-1.3-0.11c-0.32-0.01-0.73-0.1-0.98,0.14
				c-0.54,0.5-0.62,2.3-1.63,1.91c0.03,0.09,0.07,0.17,0.1,0.26c0.24-0.42,0.46-0.84,0.67-1.28c0.17-0.36,0.29-0.84,0.58-1.11
				c0.37-0.35,0.95-0.1,1.4-0.05c0.47,0.05,0.95,0.04,1.43,0.04c0.97,0.01,1.95,0,2.92-0.01c0.23,0,0.61,0.07,0.77-0.14
				c0.2-0.28,0.13-0.89,0.13-1.21C103.03,69.32,102.68,69.32,102.68,69.55L102.68,69.55z"/>
		</g>
	</g>
	<g>
		<g>
			<path class="st6" d="M106.53,66.04c0.45-0.28,1.06,0.19,1.25,0.6c0.18,0.39-0.17,0.65-0.4,0.91c-0.2,0.22-0.4,0.43-0.57,0.67
				c-0.32,0.45-0.17,0.91,0.12,1.34c0.35,0.53,0.67,1.07,0.92,1.65c0.05,0.11,0.25,0.11,0.3,0c0.29-0.66-0.17-1.15-0.45-1.72
				c-0.18-0.37-0.37-0.89-0.04-1.21c0.23-0.22,0.49-0.38,0.7-0.63c0.38-0.46,0.43-1.06,0.17-1.6c-0.22-0.45-0.77-0.58-1.1-0.94
				c-0.15-0.17-0.4,0.08-0.25,0.25c0.29,0.31,0.78,0.44,1.01,0.8c0.42,0.65-0.03,1.27-0.54,1.67c-0.18,0.14-0.37,0.29-0.46,0.51
				c-0.11,0.25-0.06,0.53,0.01,0.79c0.08,0.3,0.21,0.58,0.37,0.84c0.19,0.31,0.44,0.68,0.28,1.06c0.1,0,0.2,0,0.3,0
				c-0.14-0.33-0.3-0.65-0.48-0.96c-0.18-0.31-0.41-0.59-0.58-0.9c-0.25-0.46-0.03-0.73,0.27-1.08c0.22-0.25,0.48-0.48,0.67-0.75
				c0.61-0.89-0.82-2.13-1.68-1.6C106.17,65.86,106.34,66.16,106.53,66.04L106.53,66.04z"/>
		</g>
	</g>
	<g>
		<g>
			<path class="st6" d="M108.4,62.57c0.32,0.33,0.66,0.63,1.03,0.89c0.33,0.23,0.76,0.53,1.17,0.58c0.45,0.05,0.79-0.46,1.07-0.73
				c0.35-0.34,0.72-0.77,1.21-0.89c0.25-0.06,0.43,0,0.67,0.09c0.15,0.05,0.3,0.04,0.4-0.09c0.24-0.29-0.02-0.68-0.29-0.83
				c-0.19-0.11-0.4-0.16-0.61-0.24c-0.21-0.08-0.46-0.2-0.69-0.19c-0.18,0.01-0.31,0.1-0.43,0.23c-0.18,0.19-0.36,0.4-0.54,0.6
				c-0.2,0.23-0.41,0.45-0.61,0.68c-0.14,0.15-0.25,0.24-0.46,0.13c-0.12-0.06-0.23-0.17-0.33-0.25c-0.44-0.36-0.86-0.75-1.27-1.15
				c-0.16-0.16-0.41,0.09-0.25,0.25c0.3,0.3,0.61,0.59,0.94,0.87c0.27,0.23,0.6,0.57,0.93,0.7c0.37,0.14,0.6-0.21,0.82-0.45
				c0.31-0.34,0.61-0.68,0.92-1.02c0.05-0.06,0.13-0.18,0.2-0.2c0.12-0.05,0.29,0.02,0.4,0.06c0.21,0.07,0.42,0.14,0.62,0.22
				c0.12,0.04,0.29,0.11,0.33,0.24c0.05,0.14-0.04,0.08-0.13,0.06c-0.18-0.04-0.33-0.08-0.52-0.06c-0.8,0.08-1.37,0.82-1.91,1.33
				c-0.08,0.08-0.16,0.16-0.24,0.23c-0.16,0.13-0.34,0.05-0.5-0.02c-0.21-0.09-0.4-0.21-0.59-0.33c-0.41-0.27-0.77-0.59-1.11-0.94
				C108.49,62.16,108.24,62.41,108.4,62.57L108.4,62.57z"/>
		</g>
	</g>
</g>
<g>
	<g>
		<g>
			<g>
				<path class="st7" d="M34.31,8.87c-4.01,1.69-6.47,5.37-9.68,8.13c-1.9,1.63-4.15,2.82-6.13,4.36c-1.7,1.32-3.3,2.78-4.74,4.38
					c-2.88,3.19-5.11,6.96-6.3,11.1c-0.72,2.53-1.07,5.43-0.49,8.04c0.85,3.85,3.62,7.32,7.03,9.24c3.2,1.8,7.35,1.97,10.91,1.46
					c3.9-0.55,7.56-1.66,10.16-4.78c2.7-3.25,3.81-8.2,3.09-12.34c-0.56-3.2-1.88-6.38-2.88-9.46c-0.82-2.53-1.67-5.05-1.89-7.72
					c-0.27-3.2,0.64-6.3,2.53-8.89c0.17-0.23-0.22-0.46-0.39-0.23c-2.69,3.69-3.08,8-2.06,12.35c0.79,3.36,2.04,6.64,3.08,9.93
					c0.25,0.78,0.51,1.56,0.74,2.34c0.84,2.77,0.73,5.46,0,8.24c-0.27,1.04-0.53,2.09-0.96,3.08c-0.44,1-1.08,1.78-1.77,2.61
					c-1.48,1.78-3.51,2.99-5.74,3.62c-3.36,0.94-6.98,1.33-10.43,0.77c-4.38-0.71-8.02-3.59-9.99-7.55
					c-3.12-6.28-0.05-14.04,3.82-19.24c1.47-1.98,3.2-3.77,5.07-5.38c1.97-1.7,4.16-3.01,6.27-4.51c3.85-2.74,6.38-7.21,10.85-9.09
					C34.7,9.19,34.58,8.76,34.31,8.87L34.31,8.87z"/>
			</g>
		</g>
		<g>
			<g>
				<path class="st7" d="M36.11,8.29c-0.75-0.21-1.8-0.16-2.46,0.26c-0.15,0.09-0.14,0.29,0,0.39c0.48,0.31,1,0.54,1.56,0.69
					c-0.04-0.11-0.09-0.22-0.13-0.33c-0.28,0.64-0.45,1.3-0.52,2c-0.01,0.15,0.15,0.25,0.28,0.22c0.41-0.12,0.82-0.23,1.23-0.35
					c-0.09-0.09-0.18-0.18-0.28-0.28c-0.22,0.72-0.32,1.46-0.29,2.21c0.01,0.24,0.29,0.29,0.42,0.11c0.34-0.47,0.69-0.93,1.03-1.4
					c0.17-0.22,0.33-0.46,0.64-0.45c0.25,0.01,0.5,0.07,0.75,0.1c0.78,0.08,1.7,0.05,2.27-0.58c0.54-0.59,0.56-1.49,0.2-2.18
					c-0.39-0.74-1.22-1.14-2.02-1.22c-1.01-0.1-2.13,0.2-2.91,0.85c-0.22,0.18,0.1,0.5,0.32,0.32c0.8-0.66,2.12-0.93,3.11-0.61
					c0.93,0.3,1.66,1.35,1.13,2.31c-0.52,0.93-1.82,0.68-2.68,0.58c-0.5-0.06-0.81,0.14-1.1,0.52c-0.38,0.5-0.75,1.02-1.13,1.53
					c0.14,0.04,0.28,0.08,0.42,0.11c-0.03-0.71,0.06-1.41,0.27-2.09c0.05-0.16-0.12-0.32-0.28-0.28c-0.41,0.12-0.82,0.23-1.23,0.35
					c0.09,0.07,0.19,0.14,0.28,0.22c0.06-0.61,0.21-1.21,0.45-1.77c0.06-0.13,0.02-0.29-0.13-0.33c-0.52-0.14-1-0.35-1.45-0.64
					c0,0.13,0,0.26,0,0.39c0.56-0.36,1.48-0.39,2.12-0.22C36.27,8.8,36.39,8.36,36.11,8.29z"/>
			</g>
		</g>
		<g>
			<g>
				<path class="st7" d="M36.91,9.83c0.12,0.22,0.2,0.38,0.25,0.63c0.01,0.03,0.01,0.05,0.02,0.08c0,0.03,0,0.03,0,0
					c0,0.01,0,0.03,0,0.04c0.01,0.06,0.01,0.11,0.01,0.17c0,0.06,0,0.12-0.01,0.18c0,0.03-0.01,0.06-0.01,0.1c0,0.03,0,0.03,0,0.01
					c0,0.02-0.01,0.03-0.01,0.05c-0.02,0.12,0.03,0.25,0.16,0.28c0.11,0.02,0.26-0.03,0.28-0.16c0.05-0.29,0.06-0.57,0-0.86
					c-0.05-0.27-0.17-0.52-0.3-0.76c-0.06-0.11-0.21-0.14-0.31-0.08C36.88,9.59,36.85,9.73,36.91,9.83L36.91,9.83z"/>
			</g>
		</g>
		<g>
			<g>
				<path class="st7" d="M20.67,51.83c-0.69,0.19-1.29,0.8-1.29,1.54c0,0.37,0.14,0.75,0.41,1.01c0.29,0.28,0.69,0.39,1.08,0.43
					c0.65,0.07,1.54,0.03,1.95-0.56c0.45-0.65-0.01-1.59-0.57-2.01C21.8,51.92,21.21,51.7,20.67,51.83
					c-0.28,0.07-0.16,0.5,0.12,0.43c0.13-0.03,0.25-0.02,0.38-0.03c0.04,0-0.06-0.02-0.03,0c0.02,0.01,0.05,0.01,0.07,0.02
					c0.18,0.05,0.35,0.11,0.52,0.2c0.23,0.12,0.42,0.27,0.57,0.5c0.16,0.24,0.31,0.56,0.24,0.85c-0.13,0.54-0.85,0.58-1.29,0.58
					c-0.58,0-1.25-0.13-1.4-0.79c-0.14-0.62,0.37-1.17,0.94-1.33C21.06,52.19,20.95,51.76,20.67,51.83z"/>
			</g>
		</g>
		<g>
			<g>
				<path class="st7" d="M21.28,50.13c-0.25-2.06-0.8-4.07-0.94-6.15c-0.23-3.31,0.34-6.59,1.43-9.71
					c1.42-4.06,3.66-7.88,5.48-11.78c0.96-2.06,1.98-4.12,2.77-6.25c0.1-0.27-0.33-0.39-0.43-0.12c-0.87,2.33-1.99,4.59-3.05,6.84
					c-1.8,3.84-3.99,7.58-5.34,11.6c-1.02,3.03-1.53,6.22-1.31,9.42c0.15,2.08,0.69,4.09,0.94,6.15
					C20.86,50.42,21.31,50.42,21.28,50.13L21.28,50.13z"/>
			</g>
		</g>
		<g>
			<g>
				<path class="st7" d="M19.12,51.86c-2.89-2.6-3.78-6.39-3.77-10.14c0.01-3.83,0.83-7.69,2.54-11.12
					c2.28-4.58,5.58-8.44,8.48-12.62c0.17-0.24-0.22-0.46-0.39-0.23c-3.18,4.59-6.92,8.82-9.13,14.01
					c-2.61,6.14-3.5,15.5,1.94,20.42C19.02,52.37,19.34,52.05,19.12,51.86L19.12,51.86z"/>
			</g>
		</g>
		<g>
			<g>
				<path class="st7" d="M18.06,53.09c-6.4-1.5-7.04-10.28-5.88-15.46c1.12-5.04,3.53-10.07,7.58-13.39c0.22-0.18-0.1-0.5-0.32-0.32
					c-4.51,3.7-7.21,9.67-8.02,15.35c-0.72,5.09,0.56,12.85,6.52,14.25C18.22,53.59,18.34,53.16,18.06,53.09L18.06,53.09z"/>
			</g>
		</g>
		<g>
			<g>
				<path class="st7" d="M23.69,52.73c5.97-2.67,8.27-10.81,8.6-16.78c0.21-3.83-0.81-7.51-1.2-11.29
					c-0.35-3.36-0.56-7.19,1.19-10.22c0.15-0.25-0.24-0.48-0.39-0.23c-3.32,5.75-0.4,12.93-0.05,19c0.22,3.9-0.53,7.84-1.96,11.46
					c-1.25,3.17-3.2,6.22-6.41,7.66C23.2,52.46,23.43,52.84,23.69,52.73L23.69,52.73z"/>
			</g>
		</g>
		<g>
			<g>
				<path class="st7" d="M25.94,53.65c4.1,0.82,7.65-3.57,8.93-6.93c0.81-2.13,1.24-4.59,1.13-6.86c-0.11-2.17-0.9-4.26-1.22-6.4
					c-0.04-0.29-0.48-0.16-0.43,0.12c0.28,1.84,0.89,3.62,1.13,5.47c0.27,2.06-0.05,4.27-0.61,6.26c-0.55,1.98-1.5,3.86-2.93,5.35
					c-1.44,1.5-3.7,3.01-5.88,2.58C25.77,53.16,25.65,53.59,25.94,53.65L25.94,53.65z"/>
			</g>
		</g>
	</g>
	<g>
		<g>
			<g>
				<path class="st7" d="M40.03,25.45c-0.19-1.49-1.58-2.27-2.45-3.35c-1.11-1.38-1.6-3.16-1.43-4.91
					c-0.06,0.07-0.11,0.14-0.17,0.22c0.24-0.08,0.48-0.17,0.72-0.25c0.4-0.14,0.76,0.03,1.14,0.22c1.17,0.58,1.95,1.7,2.64,2.76
					c0.64,0.99,1.27,1.97,2.15,2.76c0.87,0.78,1.87,1.39,2.86,2c-0.03-0.08-0.07-0.17-0.1-0.25c-0.2,0.66-1.59,0.21-2.01,0.81
					c-0.15,0.21-0.16,0.46-0.12,0.7c0.05,0.27,0.56,1.05,0.01,1.17c-0.23,0.05-0.63-0.26-0.86-0.3c-0.21-0.04-0.42-0.02-0.6,0.12
					c-0.27,0.21-0.35,0.62-0.46,0.91c-0.2,0.54-0.4,1.08-0.6,1.62c0.15,0.02,0.29,0.04,0.44,0.06c-0.07-0.89-0.26-1.76-0.62-2.58
					c-0.22-0.52-0.8-1.16-0.46-1.75c0.25-0.43,0.87-0.85,1.23-1.19c0.21-0.2-0.11-0.52-0.32-0.32c-0.58,0.56-1.84,1.33-1.47,2.28
					c0.21,0.54,0.57,1.02,0.77,1.57c0.24,0.64,0.37,1.31,0.42,2c0.02,0.26,0.35,0.3,0.44,0.06c0.2-0.54,0.4-1.08,0.6-1.62
					c0.12-0.32,0.19-0.75,0.62-0.69c0.13,0.02,0.25,0.1,0.37,0.14c0.42,0.16,1,0.27,1.2-0.28c0.23-0.64-0.9-1.71,0.31-1.85
					c0.61-0.07,1.31-0.03,1.53-0.73c0.03-0.1-0.02-0.2-0.1-0.25c-1.14-0.69-2.3-1.4-3.23-2.37c-0.97-1.02-1.59-2.31-2.44-3.41
					c-0.63-0.81-1.42-1.56-2.4-1.92c-0.73-0.27-1.09-0.08-1.79,0.17c-0.1,0.04-0.16,0.11-0.17,0.22c-0.14,1.52,0.19,3.04,0.96,4.36
					c0.38,0.65,0.87,1.21,1.42,1.72c0.63,0.59,1.38,1.28,1.5,2.18C39.62,25.73,40.07,25.74,40.03,25.45L40.03,25.45z"/>
			</g>
		</g>
		<g>
			<g>
				<path class="st7" d="M45.55,24.92c3.61,0.97,7.44,2,10.49,4.26c1.47,1.09,2.77,2.48,3.59,4.13c0.97,1.96,1.14,4.27,1.14,6.43
					c0,1.15-0.16,2.3-0.85,3.24c-0.66,0.91-1.5,0.98-2.45,1.4c-0.69,0.31-1.08,0.84-1.6,1.36c-0.81,0.78-1.78,1.32-2.87,1.6
					c-3.84,1-8.79-1.24-10.82-4.59c-2.34-3.87-1.66-9.24-0.82-13.46c0.06-0.28-0.38-0.4-0.43-0.12c-0.81,4.06-1.42,8.96,0.36,12.85
					c1.69,3.67,6.14,6.16,10.15,6.01c1.93-0.07,3.65-0.84,4.98-2.22c0.48-0.49,0.86-0.89,1.53-1.12c0.33-0.11,0.68-0.18,1-0.32
					c0.81-0.37,1.4-1.05,1.77-1.85c0.86-1.87,0.52-4.29,0.24-6.25c-0.28-2.03-1.11-3.84-2.44-5.39c-3.21-3.75-8.26-5.14-12.85-6.38
					C45.39,24.41,45.28,24.85,45.55,24.92L45.55,24.92z"/>
			</g>
		</g>
		<g>
			<g>
				<path class="st7" d="M58.96,43.94c-0.39,1.4-1.83,2.3-3.26,2.17c-0.29-0.03-0.29,0.42,0,0.45c1.62,0.15,3.25-0.93,3.69-2.5
					C59.47,43.78,59.04,43.66,58.96,43.94L58.96,43.94z"/>
			</g>
		</g>
		<g>
			<g>
				<path class="st7" d="M46.02,28.92c5.85,2.69,9.2,8.45,11.25,14.3c0.1,0.27,0.53,0.15,0.43-0.12
					c-2.09-5.95-5.51-11.83-11.46-14.56C45.99,28.41,45.76,28.8,46.02,28.92L46.02,28.92z"/>
			</g>
		</g>
		<g>
			<g>
				<path class="st7" d="M47.29,26.94c7.08,1.48,12.03,7.97,11.59,15.19c-0.02,0.29,0.43,0.29,0.45,0
					c0.45-7.41-4.66-14.11-11.92-15.63C47.13,26.45,47.01,26.88,47.29,26.94L47.29,26.94z"/>
			</g>
		</g>
		<g>
			<g>
				<path class="st7" d="M45.21,30.29c2.19,4.47,5.36,8.42,9.26,11.52c0.22,0.18,0.54-0.14,0.32-0.32
					c-3.87-3.08-7.01-6.99-9.19-11.42C45.47,29.8,45.08,30.03,45.21,30.29L45.21,30.29z"/>
			</g>
		</g>
		<g>
			<g>
				<path class="st7" d="M43.62,31.54c1.68,2.49,2.06,5.57,3.55,8.15c0.71,1.23,1.69,2.25,2.93,2.95c1.45,0.82,3.09,1.21,4.7,1.58
					c0.28,0.07,0.4-0.37,0.12-0.43c-1.57-0.36-3.18-0.74-4.59-1.53c-1.35-0.76-2.32-1.89-3.02-3.26c-1.28-2.49-1.72-5.34-3.3-7.68
					C43.85,31.07,43.46,31.3,43.62,31.54L43.62,31.54z"/>
			</g>
		</g>
		<g>
			<g>
				<path class="st7" d="M42.06,35.08c0.55,2.38,1.02,4.82,2.51,6.81c0.94,1.25,2.09,2.15,3.54,2.72c1.49,0.58,3.09,0.87,4.67,1.04
					c0.29,0.03,0.29-0.42,0-0.45c-1.49-0.16-2.99-0.44-4.4-0.97c-1.58-0.59-2.77-1.6-3.72-2.99c-1.27-1.84-1.66-4.15-2.16-6.28
					C42.43,34.67,42,34.79,42.06,35.08L42.06,35.08z"/>
			</g>
		</g>
	</g>
</g>
</svg>
