<?xml version="1.0" encoding="utf-8"?>
<!-- Generator: Adobe Illustrator 25.4.0, SVG Export Plug-In . SVG Version: 6.00 Build 0)  -->
<svg version="1.1" id="Capa_1" xmlns="http://www.w3.org/2000/svg" xmlns:xlink="http://www.w3.org/1999/xlink" x="0px" y="0px"
	 viewBox="0 0 2586 1454" style="enable-background:new 0 0 2586 1454;" xml:space="preserve">
<style type="text/css">
	.st0{fill:none;stroke:#FFFFFF;stroke-width:4;stroke-miterlimit:10;}
	.st1{fill:#999999;}
	.st2{font-family:'Roboto-Light';}
	.st3{font-size:76.509px;}
	.st4{font-size:34.264px;}
	.st5{font-size:50.792px;}
	.st6{font-family:'Roboto-Medium';}
	.st7{font-size:43.845px;}
	.st8{fill:#CCCCCC;}
	.st9{fill:#B3B3B3;stroke:#CCCCCC;stroke-width:4.001;stroke-miterlimit:10;}
	.st10{font-family:'Roboto-Bold';}
	.st11{font-size:116.37px;}
</style>
<image style="overflow:visible;enable-background:new    ;" width="2586" height="1454" xlink:href="Territori_gibon_01_cobertura_arborea2.jpg" >
</image>
<g>
	<path class="st0" d="M557.8,885c-28.9-23.8-47.2-29.3-66.5-16.3c-22.1,14.9-14.4,43.2-14.2,45.8c4.3,55.9,65.3,53.1,142.1,144.9
		c29.1,34.8,35.3,70,65,77.4c31,7.7,71.5-3.9,80.6-27.2c13-33.2-38.6-88.1-79.6-115.5c-11.1-7.4-34.5-14.2-60.9-35
		c-2.1-1.7-12.3-9.8-25.2-22.7C580.1,917,566.6,898.6,557.8,885L557.8,885z"/>
	<path class="st0" d="M600.3,916.6c-5.7-11.3-13.6-27.4-6.5-42.5c6.3-13.5,22.6-22,37.1-20.7c9.3,0.9,15.6,6,28.3,16.3
		c11.9,9.7,22.1,18,29.4,31.6c9,16.6,3.7,22.6,10.9,49c8.5,31.1,20.2,38.8,16.3,43.6C706.7,1005.4,630.1,975.4,600.3,916.6
		L600.3,916.6z"/>
	<path class="st0" d="M541.4,814.2c1,2.8,35.4,35,47.6,33.8c10.1-1,14.9-23.5,32.3-64.9c14.7-35.1-5-36.7,0.8-56.1
		c12.6-42.2-24.3-63.2-10.9-94.8c8.8-20.9,64.3-54.2,56.7-73c-10.6-26.2-17.8-27.4-26.2-45.8c-3.9-8.5-49.2-4.9-69.3,6.5
		c-21.7,12.4-109.4,6.5-52.7,71.9c46.8,54,23,72.5,20.7,128.6C538.8,757.6,528.7,779.2,541.4,814.2L541.4,814.2z"/>
</g>
<text transform="matrix(1 0 0 1 127.33 1322.7)" class="st1 st2 st3">Océano Indico</text>
<text transform="matrix(1 0 0 1 1766.3 575.52)" class="st1 st2 st3">Océano Pacífico</text>
<text transform="matrix(1 0 0 1 267.27 711.17)" class="st1 st2 st4">Golfo de </text>
<text transform="matrix(1 0 0 1 273.97 752.27)" class="st1 st2 st4">Bengala</text>
<text transform="matrix(1 0 0 1 422.32 254.54)" class="st1 st2 st5">Asía</text>
<text transform="matrix(1 0 0 1 799.46 678.48)" class="st1 st2 st4">Mar de China</text>
<text transform="matrix(1 0 0 1 820.26 719.58)" class="st1 st2 st4">Meridional</text>
<text transform="matrix(1 0 0 1 1153.7 761.87)" class="st1 st2 st4">Philipinas</text>
<text transform="matrix(1 0 0 1 1391.7 1019)" class="st1 st2 st4">Nueva Guinea</text>
<text transform="matrix(1 0 0 1 989.3 947.13)" class="st1 st2 st4">Indonesia</text>
<text transform="matrix(1 0 0 1 747.08 927.51)" class="st1 st2 st4">Borneo</text>
<text transform="matrix(1 0 0 1 1181.7 606.56)" class="st1 st2 st4">Mar de Filipinas</text>
<text transform="matrix(1 0 0 1 462.98 1109.5)" class="st6 st7">Sumatra</text>
<text transform="matrix(1 0 0 1 667.85 885.01)" class="st6 st7">Malasia</text>
<text transform="matrix(1 0 0 1 595.92 662.7)" class="st6 st7">Tailandia</text>
<text transform="matrix(1 0 0 1 419.39 575.52)" class="st6 st7">Birmania</text>
<text transform="matrix(1 0 0 1 641.69 595.14)" class="st6 st7">Vietnam</text>
<text transform="matrix(1 0 0 1 606.82 429.49)" class="st6 st7">China</text>
<path class="st1" d="M2477.4,1344.3h-126.5c0.4-9,2.7-17.5,6.5-25.2l2.7-4.9l54.1-98.1l54.1,98.1l2.7,4.9
	C2474.7,1326.8,2477,1335.3,2477.4,1344.3z"/>
<path class="st8" d="M2414.2,1216.1v128.2H2351c0.4-9,2.7-17.5,6.5-25.2l2.7-4.9L2414.2,1216.1z"/>
<path class="st9" d="M2477.5,1347.2c0,35-28.3,63.3-63.3,63.3s-63.3-28.3-63.3-63.3c0-1,0-1.9,0.1-2.9c0.4-9,2.7-17.5,6.5-25.2
	c0.8-1.7,1.7-3.3,2.7-4.9c11.1-18.2,31.2-30.4,54.1-30.4s43,12.2,54.1,30.4c1,1.6,1.9,3.2,2.7,4.9c3.8,7.6,6.1,16.2,6.5,25.2
	C2477.4,1345.3,2477.5,1346.3,2477.5,1347.2z"/>
<text transform="matrix(1 0 0 1 2373.1001 1390.6)" class="st10 st11">N</text>
</svg>
